<svg xmlns="http://www.w3.org/2000/svg" width="32" height="32" viewBox="0 0 32 32" fill="none"><path d="M29.88 6.34 17.1 29.19a1.2 1.2 0 0 1-2.1.02L2.12 6.35a1.2 1.2 0 0 1 1.26-1.78l12.63 2.26a1.2 1.2 0 0 0 .42 0l12.37-2.26a1.2 1.2 0 0 1 1.28 1.77Z" fill="#41D1FF"/><path d="M22.34 2.02 12.9 3.87a.6.6 0 0 0-.48.55l-.58 9.8a.6.6 0 0 0 .73.62l2.63-.6a.6.6 0 0 1 .72.7l-.78 3.82a.6.6 0 0 0 .76.69l1.62-.49a.6.6 0 0 1 .76.7l-1.24 6a.6.6 0 0 0 1.06.46l.2-.26 7.67-15.3a.6.6 0 0 0-.66-.86l-2.7.52a.6.6 0 0 1-.7-.75l1.76-6.11a.6.6 0 0 0-.72-.75Z" fill="#FFDD35"/></svg>
